
            <svg xmlns="http://www.w3.org/2000/svg">
                <filter id="grayscale">
                    <feColorMatrix type="saturate" values="0"/>
                </filter>
                <g filter="url(#grayscale)">
                    <svg xmlns="http://www.w3.org/2000/svg" viewBox="17 108.625 541 355.75"> <svg x="205.43505859375" y="178.625" xmlns="http://www.w3.org/2000/svg" preserveAspectRatio="none" width="198" height="194" fill="#fff" style="overflow: visible;"><rect rx="50%" ry="50%" y="2" x="2" height="190" width="194" stroke-width="4" stroke="#284b66" stroke-opacity="1" style=""></rect></svg> <svg xmlnsSerif="http://www.serif.com/" xmlns="http://www.w3.org/2000/svg" xmlns:xlink="http://www.w3.org/1999/xlink" version="1.1" id="Layer_1" x="87" y="220.32576579304487" viewBox="36.785945892333984 417.3690490722656 1006.6140747070312 245.25283813476562" xml:space="preserve" height="97.70023518351766" width="401" preserveAspectRatio="xMinYMin" enable-background="new 0 0 1080 1080" style="overflow: visible;"><path d="M456.2,661.2c-6.5-2.6-20.1-11.7-17.1-19.7c4-4.8,10.1-7,15.5-9.9c16.4-7.9,33.2-14.9,49.8-22.4   c43.4-19.4,87-38.2,129.9-58.8c14.2-6.9,28.2-14.1,41.9-21.9c8.6-5.4,18.3-10.1,24.7-18.2c-12.4-3.1-26-1.8-38.3-0.8   c-62.3,7.6-123.9,20.4-184.9,35.1c-7.7,1.9-15.1-2.9-20.4-8c-10.8-9.2-3.5-16.4,6.4-21.7c10.8-6.1,22.1-11,33.6-15.8   c57.2-24.3,115.8-45.6,171.2-73.8c-24.7,3.7-48.6,11.2-72.8,17.4c-48.6,13.2-97.2,26.4-145.7,40.2   c-91.6,25.9-183.4,51.7-272.6,85.1c-31.7,12.2-61.8,24.9-91.6,40.8c-10.6,5-20.3,13.5-31,17.5c-1.8,1.7-6.1-0.2-7.7-1   c-3.7-1.8-7.2-4.7-9.1-8.4c-3.4-5.4,0.9-11.3,6-13.7c43.9-24.1,91.9-39.9,139.3-55.7c96.9-31,195.6-55.8,293.9-81.4   c60.2-15.2,120-31.7,180.4-46.1c7-1.3,14.4-3.9,21.4-1.9c17.3,7.9,2.7,17.8-7.1,24.2c-21.1,13.8-43.6,25.1-66.1,36.5   c-28.4,14.3-56.9,28.2-85.3,42.5c40.6-5.6,81.2-11.2,121.9-15.7c16.7-1.9,33.1-4,49.9-3.2c9.6,0.2,23.2,5.2,23.5,16.5   c-5.6,25.7-85.7,61.7-110.1,75.5C747,555.9,890.7,526,1034,495.7c3.2-0.3,6.4,0.7,9.4,1.9c-0.3,2.7-1.7,4.1-4.3,4.6   c-9,1.9-17.9,3.7-26.9,5.6c-150,34.1-301.9,63.3-447.7,113.4c-20.7,7.3-41.5,14.4-60.9,24.9c-10.3,5-20.6,10-31.3,14   c-3.6,1.5-7.4,2.7-11.2,2.5C459.5,662.4,457.8,662,456.2,661.2z" style="fill: #284b66; fill-opacity: 1;"></path><path d="M448.1,586.7c8.7-24.9,17.4-49.8,27.3-74.3c6.3-15,12.3-30.4,20.5-44.5c4.2-4.3,11.6-3.3,16.6-1c5.1,3.2,8.2,10.6,6.8,16.6   c-17.2,26.9-37.4,52.3-51.4,81.2c-6.3,12.8-11.6,25.7-16.6,38.9c-1,3.7-2.6,8-6.9,8.4C440,603.8,446.2,594.9,448.1,586.7z" style="fill: #284b66; fill-opacity: 1;"></path></svg> <svg y="376.625" viewBox="1.9800000190734863 9.25 227.44000244140625 17.75" x="189.7150421142578" height="17.75" width="227.44000244140625" xmlns="http://www.w3.org/2000/svg" style="overflow: visible;"><g fill="#284b66" fill-opacity="1" style=""><path d="M8.44 26.68L1.98 26.68L1.98 9.55L7.96 9.55Q9.73 9.55 11.18 9.92Q12.63 10.30 13.48 11.22Q14.33 12.14 14.33 13.80L14.33 13.80Q14.33 14.56 14.05 15.31Q13.78 16.05 13.28 16.64Q12.79 17.23 12.10 17.50L12.10 17.50L12.10 17.59Q13.39 17.94 14.26 18.93Q15.13 19.92 15.13 21.62L15.13 21.62Q15.13 23.37 14.24 24.48Q13.34 25.60 11.82 26.14Q10.30 26.68 8.44 26.68L8.44 26.68ZM6.09 12.70L6.09 16.35L7.80 16.35Q9.11 16.35 9.72 15.82Q10.33 15.29 10.33 14.42L10.33 14.42Q10.33 13.50 9.71 13.10Q9.08 12.70 7.80 12.70L7.80 12.70L6.09 12.70ZM6.09 19.37L6.09 23.53L8.14 23.53Q9.64 23.53 10.38 22.99Q11.13 22.45 11.13 21.34L11.13 21.34Q11.13 20.29 10.38 19.83Q9.64 19.37 8.14 19.37L8.14 19.37L6.09 19.37ZM49.77 26.68L38.66 26.68L38.66 9.55L49.52 9.55L49.52 12.97L42.78 12.97L42.78 16.15L48.51 16.15L48.51 19.60L42.78 19.60L42.78 23.23L49.77 23.23L49.77 26.68ZM81.56 27.00L81.56 27.00Q79.19 27.00 77.27 26.01Q75.35 25.02 74.21 23.07Q73.07 21.11 73.07 18.22L73.07 18.22Q73.07 16.08 73.74 14.41Q74.41 12.74 75.57 11.59Q76.73 10.44 78.25 9.84Q79.76 9.25 81.49 9.25L81.49 9.25Q83.38 9.25 84.73 9.92Q86.09 10.60 86.96 11.48L86.96 11.48L84.80 14.10Q84.16 13.52 83.43 13.14Q82.71 12.77 81.63 12.77L81.63 12.77Q80.36 12.77 79.38 13.40Q78.41 14.03 77.84 15.21Q77.28 16.40 77.28 18.08L77.28 18.08Q77.28 19.78 77.80 20.99Q78.31 22.20 79.36 22.83Q80.41 23.46 82.00 23.46L82.00 23.46Q82.45 23.46 82.89 23.34Q83.33 23.23 83.61 23.02L83.61 23.02L83.61 20.26L80.89 20.26L80.89 16.91L87.26 16.91L87.26 24.91Q86.36 25.76 84.86 26.38Q83.35 27.00 81.56 27.00ZM115.53 26.68L111.41 26.68L111.41 9.55L117.69 9.55Q119.53 9.55 121.05 10.03Q122.57 10.51 123.48 11.70Q124.38 12.88 124.38 14.95L124.38 14.95Q124.38 16.95 123.48 18.22Q122.57 19.48 121.05 20.07Q119.53 20.65 117.69 20.65L117.69 20.65L115.53 20.65L115.53 26.68ZM115.53 12.81L115.53 17.41L117.37 17.41Q118.84 17.41 119.61 16.78Q120.38 16.15 120.38 14.95L120.38 14.95Q120.38 13.73 119.61 13.27Q118.84 12.81 117.37 12.81L117.37 12.81L115.53 12.81ZM125.26 26.68L120.66 26.68L116.95 19.60L119.74 16.91L125.26 26.68ZM159.50 26.68L148.40 26.68L148.40 9.55L159.25 9.55L159.25 12.97L152.51 12.97L152.51 16.15L158.24 16.15L158.24 19.60L152.51 19.60L152.51 23.23L159.50 23.23L159.50 26.68ZM185.61 26.68L181.42 26.68L186.74 9.55L191.66 9.55L196.97 26.68L192.65 26.68L190.51 18.12Q190.16 16.84 189.83 15.39Q189.50 13.94 189.15 12.63L189.15 12.63L189.06 12.63Q188.76 13.96 188.42 15.40Q188.07 16.84 187.75 18.12L187.75 18.12L185.61 26.68ZM193.31 22.75L185.03 22.75L185.03 19.57L193.31 19.57L193.31 22.75ZM224.78 26.68L220.66 26.68L220.66 12.97L216.04 12.97L216.04 9.55L229.42 9.55L229.42 12.97L224.78 12.97L224.78 26.68Z" transform="translate(0, 0)"></path></g></svg></svg>
                </g>
            </svg>
        