
            <svg xmlns="http://www.w3.org/2000/svg">
                <filter id="grayscale">
                    <feColorMatrix type="saturate" values="0"/>
                </filter>
                <g filter="url(#grayscale)">
                    <svg xmlns="http://www.w3.org/2000/svg" viewBox="68.50006103515625 158.69999885559082 438.00000000000006 237.75000095367432"> <svg xmlnsSerif="http://www.serif.com/" xmlns="http://www.w3.org/2000/svg" xmlns:xlink="http://www.w3.org/1999/xlink" version="1.1" id="Layer_1" x="138.50006103515625" y="228.69999885559082" viewBox="36.785945892333984 417.3690490722656 1006.6140747070312 245.25283813476562" xml:space="preserve" height="72.60509984937765" width="298.00000000000006" preserveAspectRatio="xMinYMin" enable-background="new 0 0 1080 1080" style="overflow: visible;"><path d="M456.2,661.2c-6.5-2.6-20.1-11.7-17.1-19.7c4-4.8,10.1-7,15.5-9.9c16.4-7.9,33.2-14.9,49.8-22.4   c43.4-19.4,87-38.2,129.9-58.8c14.2-6.9,28.2-14.1,41.9-21.9c8.6-5.4,18.3-10.1,24.7-18.2c-12.4-3.1-26-1.8-38.3-0.8   c-62.3,7.6-123.9,20.4-184.9,35.1c-7.7,1.9-15.1-2.9-20.4-8c-10.8-9.2-3.5-16.4,6.4-21.7c10.8-6.1,22.1-11,33.6-15.8   c57.2-24.3,115.8-45.6,171.2-73.8c-24.7,3.7-48.6,11.2-72.8,17.4c-48.6,13.2-97.2,26.4-145.7,40.2   c-91.6,25.9-183.4,51.7-272.6,85.1c-31.7,12.2-61.8,24.9-91.6,40.8c-10.6,5-20.3,13.5-31,17.5c-1.8,1.7-6.1-0.2-7.7-1   c-3.7-1.8-7.2-4.7-9.1-8.4c-3.4-5.4,0.9-11.3,6-13.7c43.9-24.1,91.9-39.9,139.3-55.7c96.9-31,195.6-55.8,293.9-81.4   c60.2-15.2,120-31.7,180.4-46.1c7-1.3,14.4-3.9,21.4-1.9c17.3,7.9,2.7,17.8-7.1,24.2c-21.1,13.8-43.6,25.1-66.1,36.5   c-28.4,14.3-56.9,28.2-85.3,42.5c40.6-5.6,81.2-11.2,121.9-15.7c16.7-1.9,33.1-4,49.9-3.2c9.6,0.2,23.2,5.2,23.5,16.5   c-5.6,25.7-85.7,61.7-110.1,75.5C747,555.9,890.7,526,1034,495.7c3.2-0.3,6.4,0.7,9.4,1.9c-0.3,2.7-1.7,4.1-4.3,4.6   c-9,1.9-17.9,3.7-26.9,5.6c-150,34.1-301.9,63.3-447.7,113.4c-20.7,7.3-41.5,14.4-60.9,24.9c-10.3,5-20.6,10-31.3,14   c-3.6,1.5-7.4,2.7-11.2,2.5C459.5,662.4,457.8,662,456.2,661.2z" style="fill: #a64b4b; fill-opacity: 1;"></path><path d="M448.1,586.7c8.7-24.9,17.4-49.8,27.3-74.3c6.3-15,12.3-30.4,20.5-44.5c4.2-4.3,11.6-3.3,16.6-1c5.1,3.2,8.2,10.6,6.8,16.6   c-17.2,26.9-37.4,52.3-51.4,81.2c-6.3,12.8-11.6,25.7-16.6,38.9c-1,3.7-2.6,8-6.9,8.4C440,603.8,446.2,594.9,448.1,586.7z" style="fill: #a64b4b; fill-opacity: 1;"></path></svg> <svg y="312.8499994277954" viewBox="1.9900000095367432 4.940000057220459 191.63999938964844 13.600000381469727" x="191.6800308227539" height="13.600000381469727" width="191.63999938964844" style="overflow: visible;"><g fill="#000" style=""><path d="M8.34 18.39L1.99 18.39L1.99 5.09L7.96 5.09Q10.26 5.09 11.49 6.01Q12.73 6.94 12.73 8.53L12.73 8.53Q12.73 9.61 12.25 10.36Q11.76 11.10 10.94 11.49Q10.13 11.89 9.18 11.89L9.18 11.89L9.52 11.32Q10.66 11.32 11.53 11.72Q12.41 12.12 12.92 12.89Q13.43 13.66 13.43 14.80L13.43 14.80Q13.43 16.51 12.15 17.45Q10.87 18.39 8.34 18.39L8.34 18.39ZM3.90 6.63L3.90 16.85L8.27 16.85Q9.84 16.85 10.68 16.32Q11.51 15.79 11.51 14.65L11.51 14.65Q11.51 13.49 10.68 12.96Q9.84 12.43 8.27 12.43L8.27 12.43L3.72 12.43L3.72 10.89L7.79 10.89Q9.23 10.89 10.03 10.36Q10.83 9.82 10.83 8.76L10.83 8.76Q10.83 7.70 10.03 7.16Q9.23 6.63 7.79 6.63L7.79 6.63L3.90 6.63ZM34.83 12.45L34.83 10.83L41.67 10.83L41.67 12.45L34.83 12.45ZM35.00 6.74L35.00 16.74L42.75 16.74L42.75 18.39L33.10 18.39L33.10 5.09L42.48 5.09L42.48 6.74L35.00 6.74ZM68.55 18.54L68.55 18.54Q67.01 18.54 65.72 18.04Q64.43 17.54 63.48 16.62Q62.53 15.69 62.00 14.46Q61.46 13.22 61.46 11.74L61.46 11.74Q61.46 10.26 62.00 9.03Q62.53 7.79 63.49 6.87Q64.45 5.95 65.74 5.44Q67.03 4.94 68.59 4.94L68.59 4.94Q70.17 4.94 71.48 5.45Q72.79 5.97 73.70 6.99L73.70 6.99L72.52 8.17Q71.71 7.37 70.75 7.00Q69.79 6.63 68.67 6.63L68.67 6.63Q67.53 6.63 66.55 7.01Q65.57 7.39 64.86 8.07Q64.14 8.76 63.75 9.70Q63.36 10.64 63.36 11.74L63.36 11.74Q63.36 12.82 63.75 13.77Q64.14 14.71 64.86 15.40Q65.57 16.09 66.54 16.47Q67.51 16.85 68.65 16.85L68.65 16.85Q69.71 16.85 70.69 16.52Q71.67 16.19 72.50 15.41L72.50 15.41L73.59 16.85Q72.60 17.69 71.28 18.12Q69.96 18.54 68.55 18.54ZM73.59 16.85L71.76 16.61L71.76 11.67L73.59 11.67L73.59 16.85ZM95.84 18.39L93.94 18.39L93.94 5.09L99.12 5.09Q100.87 5.09 102.11 5.64Q103.34 6.19 104.01 7.24Q104.67 8.28 104.67 9.73L104.67 9.73Q104.67 11.17 104.01 12.21Q103.34 13.24 102.11 13.79Q100.87 14.34 99.12 14.34L99.12 14.34L94.98 14.34L95.84 13.47L95.84 18.39ZM104.90 18.39L102.83 18.39L99.45 13.57L101.48 13.57L104.90 18.39ZM95.84 5.79L95.84 13.66L94.98 12.73L99.07 12.73Q100.89 12.73 101.83 11.94Q102.77 11.15 102.77 9.73L102.77 9.73Q102.77 8.30 101.83 7.52Q100.89 6.74 99.07 6.74L99.07 6.74L94.98 6.74L95.84 5.79ZM126.20 12.45L126.20 10.83L133.04 10.83L133.04 12.45L126.20 12.45ZM126.37 6.74L126.37 16.74L134.12 16.74L134.12 18.39L124.47 18.39L124.47 5.09L133.86 5.09L133.86 6.74L126.37 6.74ZM153.86 18.39L151.91 18.39L157.93 5.09L159.81 5.09L165.85 18.39L163.86 18.39L158.48 6.16L159.24 6.16L153.86 18.39ZM163.02 15.07L154.47 15.07L154.98 13.55L162.47 13.55L163.02 15.07ZM189.07 18.39L187.19 18.39L187.19 6.74L182.63 6.74L182.63 5.09L193.63 5.09L193.63 6.74L189.07 6.74L189.07 18.39Z" transform="translate(0, 0)"></path></g></svg></svg>
                </g>
            </svg>
        